<?xml version="1.0" encoding="iso-8859-1"?>
<!-- Generator: Adobe Illustrator 19.0.0, SVG Export Plug-In . SVG Version: 6.00 Build 0)  -->
<svg version="1.1" id="Capa_1" xmlns="http://www.w3.org/2000/svg" xmlns:xlink="http://www.w3.org/1999/xlink" x="0px" y="0px"
	 viewBox="0 0 512 512" style="enable-background:new 0 0 512 512;" xml:space="preserve">
<g>
	<path style="fill:#E85454;" d="M501.16,78.858h-64.32c-1.844,0-3.34-1.495-3.34-3.34v-64.32c0-1.844-1.495-3.34-3.34-3.34h-28.82
		c-1.844,0-3.34,1.495-3.34,3.34v64.32c0,1.844-1.495,3.34-3.34,3.34h-64.319c-1.844,0-3.34,1.495-3.34,3.34v28.82
		c0,1.844,1.495,3.34,3.34,3.34h64.32c1.844,0,3.34,1.495,3.34,3.34v64.32c0,1.844,1.495,3.34,3.34,3.34h28.82
		c1.844,0,3.34-1.495,3.34-3.34v-64.321c0-1.844,1.495-3.34,3.34-3.34h64.32c1.844,0,3.34-1.495,3.34-3.34V82.198
		C504.5,80.353,503.005,78.858,501.16,78.858z"/>
	<path style="fill:#E85454;" d="M238.251,359.517V188.697c0-1.844-1.495-3.34-3.34-3.34h-82.07c-1.844,0-3.34,1.495-3.34,3.34v28.82
		c0,1.844,1.495,3.34,3.34,3.34h46.57c1.844,0,3.34,1.495,3.34,3.34v135.32c0,1.845-1.495,3.34-3.34,3.34h-46.57
		c-1.844,0-3.34,1.495-3.34,3.34v28.82c0,1.844,1.495,3.339,3.34,3.339c15.174,0,121.631,0,135.32,0c1.844,0,3.34-1.495,3.34-3.339
		v-28.82c0-1.845-1.495-3.34-3.34-3.34h-46.57C239.746,362.857,238.251,361.362,238.251,359.517z"/>
	<path style="fill:#E85454;" d="M430.161,238.607h-28.82c-1.844,0-3.34,1.495-3.34,3.34v224.07c0,1.844-1.495,3.339-3.34,3.339
		H46.341c-1.845,0-3.34-1.495-3.34-3.339v-348.32c0-1.844,1.495-3.34,3.34-3.34h218.153c1.844,0,3.34-1.495,3.34-3.34V82.198
		c0-1.844-1.495-3.34-3.34-3.34H10.841c-1.844,0-3.34,1.495-3.34,3.34v419.319c0,1.845,1.495,3.34,3.34,3.34h419.319
		c1.844,0,3.34-1.495,3.34-3.34c0-27.083,0-233.718,0-259.57C433.501,240.103,432.005,238.607,430.161,238.607z"/>
	<path style="fill:#E85454;" d="M501.16,78.858h-64.32c-1.844,0-3.34-1.495-3.34-3.34v-64.32c0-1.844-1.495-3.34-3.34-3.34h-28.82
		c-1.844,0-3.34,1.495-3.34,3.34v64.32c0,1.844-1.495,3.34-3.34,3.34h-64.319c-1.844,0-3.34,1.495-3.34,3.34v28.82
		c0,1.844,1.495,3.34,3.34,3.34h64.32c1.844,0,3.34,1.495,3.34,3.34v64.32c0,1.844,1.495,3.34,3.34,3.34h28.82
		c1.844,0,3.34-1.495,3.34-3.34v-64.321c0-1.844,1.495-3.34,3.34-3.34h64.32c1.844,0,3.34-1.495,3.34-3.34V82.198
		C504.5,80.353,503.005,78.858,501.16,78.858z"/>
</g>
<g>
	<path style="fill:#D84848;" d="M344.75,111.018v-28.82c0-1.844,1.495-3.34,3.34-3.34h-17.75c-1.844,0-3.34,1.495-3.34,3.34v28.82
		c0,1.844,1.495,3.34,3.34,3.34h17.75C346.245,114.358,344.75,112.862,344.75,111.018z"/>
	<path style="fill:#D84848;" d="M415.751,75.518v-64.32c0-1.844,1.495-3.34,3.34-3.34h-17.75c-1.844,0-3.34,1.495-3.34,3.34v64.32
		c0,1.844-1.495,3.34-3.34,3.34h17.75C414.256,78.858,415.751,77.363,415.751,75.518z"/>
	<path style="fill:#D84848;" d="M415.751,182.017v-64.32c0-1.844-1.495-3.34-3.34-3.34h-17.75c1.844,0,3.34,1.495,3.34,3.34v64.32
		c0,1.844,1.495,3.34,3.34,3.34h17.75C417.246,185.357,415.751,183.862,415.751,182.017z"/>
</g>
<path style="fill:#E85454;" d="M238.251,359.517V188.697c0-1.844-1.495-3.34-3.34-3.34h-82.07c-1.844,0-3.34,1.495-3.34,3.34v28.82
	c0,1.844,1.495,3.34,3.34,3.34h46.57c1.844,0,3.34,1.495,3.34,3.34v135.32c0,1.845-1.495,3.34-3.34,3.34h-46.57
	c-1.844,0-3.34,1.495-3.34,3.34v28.82c0,1.844,1.495,3.339,3.34,3.339c15.174,0,121.631,0,135.32,0c1.844,0,3.34-1.495,3.34-3.339
	v-28.82c0-1.845-1.495-3.34-3.34-3.34h-46.57C239.746,362.857,238.251,361.362,238.251,359.517z"/>
<g>
	<path style="fill:#D84848;" d="M217.746,220.857h-18.334c1.844,0,3.34,1.495,3.34,3.34v135.32c0,1.845-1.495,3.34-3.34,3.34h18.334
		c1.844,0,3.339-1.495,3.339-3.34V224.197C221.085,222.352,219.59,220.857,217.746,220.857z"/>
	<path style="fill:#D84848;" d="M152.841,220.857h18.334c-1.845,0-3.34-1.495-3.34-3.34v-28.82c0-1.844,1.495-3.34,3.34-3.34
		h-18.334c-1.844,0-3.34,1.495-3.34,3.34v28.82C149.502,219.362,150.997,220.857,152.841,220.857z"/>
	<path style="fill:#D84848;" d="M167.836,395.017v-28.82c0-1.845,1.495-3.34,3.34-3.34h-18.334c-1.844,0-3.34,1.495-3.34,3.34v28.82
		c0,1.844,1.495,3.339,3.34,3.339h18.334C169.331,398.357,167.836,396.861,167.836,395.017z"/>
	<path style="fill:#D84848;" d="M398.001,241.948v224.07c0,1.844-1.495,3.339-3.34,3.339h17.529c1.844,0,3.34-1.495,3.34-3.339
		v-224.07c0-1.844,1.495-3.34,3.34-3.34h-17.529C399.496,238.607,398.001,240.103,398.001,241.948z"/>
	<path style="fill:#D84848;" d="M25.03,501.516V82.198c0-1.844,1.495-3.34,3.34-3.34H10.841c-1.844,0-3.34,1.495-3.34,3.34v419.319
		c0,1.845,1.495,3.34,3.34,3.34H28.37C26.525,504.857,25.03,503.361,25.03,501.516z"/>
</g>
<path d="M501.161,70.999h-60.16V10.841C441.001,4.862,436.139,0,430.161,0h-28.82C395.362,0,390.5,4.862,390.5,10.841v60.159h-60.16
	c-5.978,0-10.841,4.862-10.841,10.841v28.82c0,5.978,4.862,10.841,10.841,10.841h60.159v60.16c0,5.977,4.862,10.84,10.841,10.84
	h28.82c5.978,0,10.841-4.862,10.841-10.84V121.5h60.16c5.977,0,10.84-4.862,10.84-10.841V81.84
	C512,75.862,507.137,70.999,501.161,70.999z M497,106.499h-60.159c-5.978,0-10.841,4.862-10.841,10.841v60.159h-20.499V117.34
	c0-5.978-4.862-10.841-10.841-10.841h-60.16V86h60.159c5.978,0,10.841-4.862,10.841-10.841V15.001h20.499V75.16
	c0,5.978,4.862,10.841,10.841,10.841h60.159v20.499H497z"/>
<path d="M245.751,188.339c0-5.978-4.862-10.841-10.841-10.841h-82.07c-5.978,0-10.841,4.862-10.841,10.841v28.82
	c0,5.978,4.862,10.841,10.841,10.841h42.41v126.999h-42.41c-5.978,0-10.841,4.862-10.841,10.841v28.82
	c0,5.978,4.862,10.841,10.841,10.841H203c4.143,0,7.5-3.357,7.5-7.5s-3.357-7.5-7.5-7.5h-45.999v-20.499h42.41
	c5.978,0,10.841-4.862,10.841-10.841V223.84c0-5.978-4.862-10.841-10.841-10.841h-42.41V192.5h73.749v166.659
	c0,5.978,4.862,10.841,10.84,10.841H284v20.499h-45.998c-4.143,0-7.5,3.357-7.5,7.5s3.357,7.5,7.5,7.5h50.158
	c5.978,0,10.841-4.862,10.841-10.841v-28.82c0-5.978-4.862-10.841-10.841-10.841h-42.409V188.339z"/>
<path d="M430.161,230.749h-28.82c-5.978,0-10.841,4.862-10.841,10.841v219.909H50.502V121.5h213.992
	c5.978,0,10.841-4.862,10.841-10.841V81.84c0-5.978-4.862-10.841-10.841-10.841H10.841c-5.978,0-10.841,4.862-10.841,10.841v419.319
	c0,5.978,4.862,10.841,10.841,10.841h419.319c5.978,0,10.841-4.862,10.841-10.841V326.502c0-4.143-3.357-7.5-7.5-7.5
	c-4.143,0-7.5,3.357-7.5,7.5v170.496H15.001V86h245.332v20.499H46.341c-5.978,0-10.841,4.862-10.841,10.841v348.319
	c0,5.978,4.862,10.841,10.841,10.841H394.66c5.978,0,10.841-4.862,10.841-10.841V245.75H426v45.75c0,4.143,3.357,7.5,7.5,7.5
	c4.143,0,7.5-3.357,7.5-7.5v-49.91C441.001,235.612,436.138,230.749,430.161,230.749z"/>
<g>
</g>
<g>
</g>
<g>
</g>
<g>
</g>
<g>
</g>
<g>
</g>
<g>
</g>
<g>
</g>
<g>
</g>
<g>
</g>
<g>
</g>
<g>
</g>
<g>
</g>
<g>
</g>
<g>
</g>
</svg>
