<svg id="Capa_1" enable-background="new 0 0 512 512" height="512" viewBox="0 0 512 512" width="512" xmlns="http://www.w3.org/2000/svg"><path d="m12.829 74.212c6.59 6.561 26.654 25.751 34.975 33.697 2.174 2.075 4.957 3.112 7.741 3.112 2.802 0 5.604-1.051 7.783-3.151 8.773-8.458 29.745-28.701 35.003-33.982 6.491-6.519 12.499-14.204 12.517-26.183.023-14.54-9.206-27.458-22.963-32.143-3.497-1.191-7.157-1.798-10.879-1.803-.018 0-.035 0-.052 0-7.939 0-15.513 2.737-21.578 7.756-6.149-5.042-13.87-7.756-21.846-7.66-9.871.109-19.164 4.52-25.497 12.101-6.498 7.782-9.244 18.032-7.533 28.124 1.342 7.906 5.536 13.368 12.329 20.132zm6.748-38.615c3.56-4.262 8.575-6.643 14.119-6.704.07-.001.141-.001.211-.001 4.82 0 9.397 1.81 12.911 5.11 4.836 4.543 12.367 4.538 17.143-.009 3.52-3.351 8.133-5.195 12.995-5.195h.029c2.077.003 4.114.34 6.053 1 7.652 2.606 12.785 9.793 12.772 17.883-.008 5.489-2.137 9.57-8.136 15.596-4.695 4.715-22.403 21.824-32.141 31.217-8.401-8.03-26.159-25.031-32.094-30.94-6.219-6.193-7.571-8.801-8.112-11.99-.974-5.747.575-11.567 4.25-15.967z"/><path d="m512 312.825c0-13.25-5.666-25.885-15.372-34.729 8.26-9.155 12.911-21.119 12.911-33.553 0-26.971-20.913-48.789-47.755-50.004-.325-.043-.656-.066-.992-.066l-117.266-.119c.339-2.487.681-4.951 1.017-7.377 1.622-11.703 3.155-22.757 4.191-34.121 2.315-25.378 2.423-54.985-14.327-82.152-17.845-28.944-46.881-39.701-77.672-28.777-3.11 1.103-12.572 4.46-11.189 17.197 2.085 19.213 4.418 41.913 5.912 64.6.36 5.455-.552 10.9-2.439 14.568-11.638 22.621-23.696 45.525-35.357 67.675-7.299 13.864-14.846 28.2-22.22 42.333-4.061 7.784-7.228 16.059-9.412 24.593-.562 2.197-2.552 3.731-4.838 3.731h-16.879v-3.978c0-7.463-6.072-13.535-13.535-13.535h-108.441c-21.139.001-38.337 17.199-38.337 38.337v22.404c0 4.153 3.367 7.52 7.52 7.52s7.52-3.367 7.52-7.52v-22.404c0-12.846 10.451-23.297 23.297-23.297h106.938v209.05h-106.938c-12.846 0-23.297-10.451-23.297-23.297v-104.961c0-4.153-3.367-7.52-7.52-7.52s-7.52 3.367-7.52 7.52v104.962c0 21.138 17.198 38.336 38.337 38.336h108.442c7.463 0 13.535-6.072 13.535-13.535v-6.663h199.833c4.153 0 7.52-3.367 7.52-7.52s-3.367-7.52-7.52-7.52h-199.833v-171.339h16.879c9.161 0 17.142-6.186 19.408-15.042 1.897-7.416 4.648-14.604 8.175-21.365 7.361-14.108 14.902-28.432 22.194-42.284 11.677-22.181 23.752-45.117 35.422-67.8 3.128-6.078 4.612-14.256 4.073-22.437-1.513-22.967-3.866-45.865-5.968-65.235-.04-.367-.055-.651-.059-.865.279-.134.701-.314 1.326-.536 24.328-8.632 45.577-.641 59.841 22.496 14.432 23.408 14.242 49.984 12.152 72.893-1.005 11.014-2.514 21.899-4.111 33.422-.72 5.193-1.464 10.563-2.165 15.989-.277 2.143.381 4.302 1.807 5.925 1.426 1.624 3.481 2.556 5.642 2.558l125.136.127c.161.015.324.025.488.03 19.034.579 33.945 15.953 33.945 35.001 0 9.929-4.242 19.432-11.638 26.072-2.38 2.136-3.648 5.193-3.479 8.385.168 3.185 1.747 6.083 4.331 7.951 8.294 5.995 13.245 15.667 13.245 25.874 0 12.048-6.675 22.943-17.42 28.433-2.551 1.303-4.477 3.632-5.287 6.391-.815 2.778-.447 5.805 1.009 8.304 2.826 4.848 4.319 10.39 4.319 16.026 0 15.404-10.98 28.6-26.108 31.377-3.198.587-5.897 2.573-7.406 5.449-1.514 2.886-1.614 6.25-.274 9.23 1.834 4.077 2.773 8.425 2.791 12.925.033 8.269-3.279 16.165-9.325 22.235-6.209 6.233-14.731 9.809-23.38 9.809h-22.19c-4.153 0-7.52 3.367-7.52 7.52s3.367 7.52 7.52 7.52h22.19c12.619 0 25.025-5.188 34.035-14.235 8.889-8.925 13.757-20.611 13.708-32.908-.019-4.812-.756-9.511-2.196-14.026 19.521-5.951 33.193-24.049 33.193-44.895 0-6.781-1.471-13.472-4.284-19.592 13.472-8.588 21.667-23.365 21.667-39.561z"/><path d="m131.96 428.476c0-14.835-12.069-26.904-26.904-26.904s-26.904 12.069-26.904 26.904 12.069 26.904 26.904 26.904 26.904-12.069 26.904-26.904zm-38.769 0c0-6.542 5.322-11.865 11.865-11.865s11.865 5.322 11.865 11.865c0 6.542-5.322 11.865-11.865 11.865s-11.865-5.323-11.865-11.865z"/><path d="m391.374 110.303c6.59 6.561 26.654 25.751 34.974 33.697 2.174 2.076 4.958 3.113 7.742 3.113 2.802 0 5.604-1.051 7.784-3.151 8.773-8.458 29.745-28.701 35.003-33.982 6.491-6.519 12.499-14.203 12.517-26.183.006-4.153-3.355-7.524-7.508-7.531-.004 0-.007 0-.011 0-4.148 0-7.513 3.359-7.52 7.508-.008 5.489-2.137 9.57-8.136 15.595-4.695 4.715-22.404 21.824-32.141 31.217-8.401-8.03-26.159-25.031-32.094-30.94-6.219-6.192-7.571-8.8-8.112-11.99-.975-5.748.574-11.568 4.249-15.967 3.56-4.262 8.575-6.643 14.12-6.704 4.925-.056 9.557 1.76 13.12 5.108 4.836 4.545 12.367 4.54 17.145-.008 3.519-3.351 8.133-5.195 12.994-5.195h.029c1.298.002 2.594.136 3.85.398 4.066.847 8.048-1.761 8.895-5.828.847-4.066-1.762-8.048-5.828-8.895-2.255-.47-4.574-.71-6.894-.714-7.944-.006-15.552 2.727-21.63 7.756-6.148-5.043-13.801-7.764-21.846-7.66-9.87.109-19.164 4.519-25.496 12.101-6.5 7.781-9.246 18.032-7.534 28.123 1.341 7.907 5.536 13.369 12.328 20.132z"/><path d="m104.331 155.803c1.341 7.907 5.536 13.37 12.328 20.133 6.59 6.561 26.654 25.751 34.974 33.697 2.174 2.076 4.958 3.113 7.742 3.113 2.802 0 5.604-1.051 7.784-3.151 8.773-8.459 29.746-28.702 35.002-33.981 6.491-6.519 12.5-14.203 12.518-26.183.023-14.54-9.206-27.458-22.963-32.143-3.498-1.191-7.158-1.798-10.879-1.804-.018 0-.035 0-.052 0-7.939 0-15.513 2.737-21.578 7.756-6.149-5.043-13.813-7.767-21.846-7.66-9.87.109-19.164 4.519-25.496 12.101-6.499 7.78-9.245 18.031-7.534 28.122zm19.077-18.482c3.56-4.262 8.575-6.643 14.12-6.704.071-.001.141-.001.212-.001 4.819 0 9.396 1.81 12.908 5.109 4.835 4.546 12.367 4.541 17.144-.007 3.52-3.351 8.134-5.195 12.995-5.195h.029c2.076.003 4.113.34 6.054 1.001 7.652 2.606 12.785 9.793 12.772 17.883-.008 5.489-2.137 9.57-8.136 15.595-4.694 4.714-22.403 21.824-32.14 31.217-8.401-8.03-26.159-25.031-32.094-30.94-6.219-6.192-7.571-8.8-8.112-11.99-.976-5.748.573-11.568 4.248-15.968z"/></svg>